<svg width="15" height="19" viewBox="0 0 15 19" fill="none" xmlns="http://www.w3.org/2000/svg">
<path fill-rule="evenodd" clip-rule="evenodd" d="M11.1302 4.35417C11.1302 6.75891 9.41727 8.70833 7.30421 8.70833C5.19116 8.70833 3.4782 6.75891 3.4782 4.35417C3.4782 1.94943 5.19116 0 7.30421 0C9.41727 0 11.1302 1.94943 11.1302 4.35417ZM0.610716 19C0.273427 19 0 18.7266 0 18.3893C0 16.1091 0 14.969 0.353828 14.098C0.665061 13.332 1.16169 12.7091 1.77253 12.3187C2.46696 11.875 3.37601 11.875 5.19411 11.875H9.41432C11.2324 11.875 12.1415 11.875 12.8359 12.3187C13.4467 12.7091 13.9434 13.332 14.2546 14.098C14.6084 14.969 14.6084 16.1091 14.6084 18.3893C14.6084 18.7266 14.335 19 13.9977 19H0.610716Z" fill="white"/>
</svg>
