<svg width="21" height="25" viewBox="0 0 21 25" fill="none" xmlns="http://www.w3.org/2000/svg">
<path d="M19.1269 11.8702C18.4133 10.0621 17.5641 8.58744 16.5793 7.44633L15.5464 8.68852C16.3886 9.65653 17.1223 10.9229 17.7567 12.5C16.0677 16.7041 13.6702 18.7012 10.3938 18.7012C9.41027 18.7012 8.5044 18.5191 7.67615 18.1548L6.55699 19.5008C7.70734 20.1396 8.98626 20.459 10.3938 20.459C14.2955 20.459 17.2065 18.0152 19.1269 13.1275C19.2042 12.9309 19.2442 12.7162 19.2442 12.4988C19.2442 12.2814 19.2042 12.0667 19.1269 11.8702ZM17.8365 4.04203L16.9711 3.00004C16.956 2.98188 16.9381 2.96747 16.9183 2.95764C16.8986 2.94782 16.8775 2.94276 16.8562 2.94276C16.8348 2.94276 16.8137 2.94782 16.794 2.95764C16.7742 2.96747 16.7563 2.98188 16.7413 3.00004L14.521 5.66898C13.2969 4.91703 11.9211 4.54105 10.3938 4.54105C6.49203 4.54105 3.58097 6.9849 1.66056 11.8726C1.58337 12.0692 1.54333 12.2839 1.54333 12.5013C1.54333 12.7187 1.58337 12.9333 1.66056 13.1299C2.42777 15.0733 3.35144 16.631 4.43155 17.803L2.28337 20.3858C2.25294 20.4224 2.23584 20.4721 2.23584 20.5238C2.23584 20.5756 2.25294 20.6253 2.28337 20.6619L3.14999 21.7041C3.18044 21.7407 3.22174 21.7613 3.26479 21.7613C3.30784 21.7613 3.34913 21.7407 3.37959 21.7041L17.8365 4.3184C17.8516 4.30026 17.8635 4.27872 17.8717 4.25501C17.8799 4.2313 17.8841 4.20588 17.8841 4.18021C17.8841 4.15455 17.8799 4.12913 17.8717 4.10542C17.8635 4.08171 17.8516 4.06017 17.8365 4.04203ZM3.03083 12.5C4.72184 8.29594 7.11931 6.29887 10.3938 6.29887C11.5009 6.29887 12.5076 6.52738 13.4209 6.99198L11.9938 8.70829C11.318 8.27461 10.5441 8.11365 9.78638 8.24917C9.02866 8.38469 8.32723 8.80951 7.78555 9.46096C7.24387 10.1124 6.89064 10.956 6.77795 11.8672C6.66527 12.7785 6.7991 13.7092 7.15971 14.522L5.46626 16.5586C4.52899 15.5638 3.72104 14.2159 3.03083 12.5ZM8.03891 12.5C8.03927 12.0695 8.12406 11.6452 8.2864 11.2615C8.44873 10.8778 8.68404 10.5456 8.9732 10.2918C9.26236 10.038 9.59721 9.86987 9.95057 9.80097C10.3039 9.73208 10.6658 9.7644 11.0068 9.8953L8.14671 13.335C8.07502 13.0651 8.03866 12.7834 8.03891 12.5Z" fill="#4B4B4B"/>
<path d="M10.3129 15.2344C10.2427 15.2344 10.1735 15.2305 10.1049 15.2229L9.03261 16.5125C9.67753 16.8095 10.3802 16.8755 11.0556 16.7025C11.7311 16.5295 12.3504 16.1249 12.8387 15.5376C13.3271 14.9504 13.6635 14.2055 13.8073 13.3932C13.9512 12.5809 13.8963 11.7358 13.6493 10.9602L12.577 12.2498C12.5833 12.3323 12.5866 12.4156 12.5866 12.5C12.5867 12.8592 12.528 13.2148 12.4138 13.5467C12.2996 13.8785 12.1322 14.18 11.921 14.4339C11.7098 14.6879 11.4591 14.8893 11.1832 15.0267C10.9073 15.164 10.6116 15.2346 10.3129 15.2344Z" fill="#4B4B4B"/>
</svg>
