<svg width="24" height="17" viewBox="0 0 24 17" fill="none" xmlns="http://www.w3.org/2000/svg">
<path d="M22.1166 0L1.70128 0C1.25007 0 0.817345 0.179107 0.498293 0.497918C0.179241 0.81673 0 1.24913 0 1.7V15.3C0 15.7509 0.179241 16.1833 0.498293 16.5021C0.817345 16.8209 1.25007 17 1.70128 17H22.1166C22.5678 17 23.0006 16.8209 23.3196 16.5021C23.6387 16.1833 23.8179 15.7509 23.8179 15.3V1.7C23.8179 1.24913 23.6387 0.81673 23.3196 0.497918C23.0006 0.179107 22.5678 0 22.1166 0ZM20.2452 1.7L11.909 7.463L3.57269 1.7H20.2452ZM1.70128 15.3V2.4735L11.4241 9.197C11.5665 9.29571 11.7357 9.3486 11.909 9.3486C12.0823 9.3486 12.2514 9.29571 12.3938 9.197L22.1166 2.4735V15.3H1.70128Z" fill="#103885"/>
</svg>
