<svg width="28" height="29" viewBox="0 0 28 29" fill="none" xmlns="http://www.w3.org/2000/svg">
<path d="M24.1891 5.43749H3.45549C2.99725 5.43749 2.55778 5.62845 2.23375 5.96836C1.90973 6.30827 1.72769 6.76929 1.72769 7.24999V21.75C1.72769 22.2307 1.90973 22.6917 2.23375 23.0316C2.55778 23.3715 2.99725 23.5625 3.45549 23.5625H24.1891C24.6474 23.5625 25.0869 23.3715 25.4109 23.0316C25.7349 22.6917 25.917 22.2307 25.917 21.75V7.24999C25.917 6.76929 25.7349 6.30827 25.4109 5.96836C25.0869 5.62845 24.6474 5.43749 24.1891 5.43749ZM22.2886 7.24999L13.8223 13.3944L5.35608 7.24999H22.2886ZM3.45549 21.75V8.07468L13.3299 15.2431C13.4745 15.3484 13.6463 15.4048 13.8223 15.4048C13.9983 15.4048 14.1701 15.3484 14.3147 15.2431L24.1891 8.07468V21.75H3.45549Z" fill="#103885"/>
</svg>
