<svg width="23" height="19" viewBox="0 0 23 19" fill="none" xmlns="http://www.w3.org/2000/svg">
<path fill-rule="evenodd" clip-rule="evenodd" d="M16.5577 8.4885L17.8465 7.42388C18.2212 7.11427 18.4086 6.95946 18.5321 6.80866C19.1355 6.07174 19.1355 5.01159 18.5321 4.27467C18.4086 4.12387 18.2213 3.96907 17.8465 3.65947L17.8465 3.65946L17.8464 3.65944L17.8464 3.65939C17.5806 3.4398 17.4476 3.33 17.3166 3.25177C16.6852 2.87496 15.898 2.87496 15.2666 3.25177C15.1355 3.33 15.0026 3.43982 14.7367 3.65944L14.7367 3.65946L12.657 5.37752C13.6064 6.77195 14.9613 7.86346 16.5577 8.4885ZM11.1096 6.65573L4.86003 11.8185C4.35114 12.2388 4.09669 12.449 3.92477 12.7239C3.75285 12.9988 3.67519 13.3195 3.51987 13.9611L3.05265 15.8909C2.97233 16.2226 2.93218 16.3885 3.02359 16.4869C3.11499 16.5853 3.28337 16.5575 3.62011 16.5019L6.60255 16.0091C7.13146 15.9217 7.39591 15.8781 7.637 15.7683C7.87809 15.6586 8.08474 15.4879 8.49802 15.1465L8.49803 15.1465L8.49804 15.1465L14.8431 9.90487C13.3511 9.13398 12.072 8.01649 11.1096 6.65573Z" fill="#103885"/>
</svg>
