<svg width="16" height="19" viewBox="0 0 16 19" fill="none" xmlns="http://www.w3.org/2000/svg">
<path d="M12.6266 13.1021L16 16.9403L14.8855 18.2087L11.5128 14.3696C10.2579 15.5144 8.69706 16.1371 7.08871 16.1345C3.17574 16.1345 0 12.5204 0 8.06725C0 3.61413 3.17574 0 7.08871 0C11.0017 0 14.1774 3.61413 14.1774 8.06725C14.1797 9.89761 13.6325 11.674 12.6266 13.1021ZM11.0466 12.437C12.0462 11.2671 12.6044 9.69901 12.6021 8.06725C12.6021 4.60012 10.1345 1.79272 7.08871 1.79272C4.04214 1.79272 1.57527 4.60012 1.57527 8.06725C1.57527 11.5335 4.04214 14.3418 7.08871 14.3418C8.52254 14.3443 9.90047 13.709 10.9284 12.5715L11.0466 12.437Z" fill="white"/>
</svg>
