<svg width="64" height="64" viewBox="0 0 64 64" fill="none" xmlns="http://www.w3.org/2000/svg">
<g clip-path="url(#clip0_104_1217)">
<path d="M62 45.2C60.2 45.6 58.4 45.2 57.8 44C57 42.8 57.6 41.2 58.8 39.8C57.4 38.4 55.4 37.2 53.4 36.6C52.8 38.4 51.6 39.6 50.2 39.6C48.8 39.6 47.6 38.4 47 36.6C45 37.2 43 38.2 41.6 39.8C42.8 41.2 43.4 42.8 42.6 44C41.8 45.2 40.2 45.6 38.4 45.2C38.2 46.2 38 47.2 38 48.4C38 49.6 38.2 50.6 38.4 51.6C40.2 51.2 42 51.6 42.6 52.8C43.4 54 42.8 55.6 41.6 57C43 58.4 45 59.6 47 60.2C47.6 58.4 48.8 57.2 50.2 57.2C51.6 57.2 52.8 58.4 53.4 60.2C55.4 59.6 57.4 58.6 58.8 57C57.6 55.6 57 54 57.8 52.8C58.6 51.6 60.2 51.2 62 51.6C62.2 50.6 62.4 49.6 62.4 48.4C62.4 47.2 62.2 46.2 62 45.2Z" stroke="#0D3075" stroke-width="2" stroke-miterlimit="10" stroke-linecap="round" stroke-linejoin="round"/>
<path d="M48 26H8L12 16.8C13.2 14 16 12 19.2 12H36.6C39.8 12 42.6 14 44 16.8L48 26Z" stroke="#0C2C78" stroke-width="2" stroke-miterlimit="10" stroke-linecap="round" stroke-linejoin="round"/>
<path d="M16 46H4V50C4 52.2 5.8 54 8 54H12C14.2 54 16 52.2 16 50V46Z" stroke="#0D3075" stroke-width="2" stroke-miterlimit="10" stroke-linecap="round" stroke-linejoin="round"/>
<path d="M2 24H8.8" stroke="#0B2C78" stroke-width="2" stroke-miterlimit="10" stroke-linecap="round" stroke-linejoin="round"/>
<path d="M48 24H54" stroke="#092C7D" stroke-width="2" stroke-miterlimit="10" stroke-linecap="round" stroke-linejoin="round"/>
<path d="M38 46H18L20.8 40.2C21.4 38.8 22.8 38 24.4 38H31.4C33 38 34.4 38.8 35 40.2L38 46Z" stroke="#0C2D7A" stroke-width="2" stroke-miterlimit="10" stroke-linecap="round" stroke-linejoin="round"/>
<path d="M8 36H14" stroke="#0B2C7A" stroke-width="2" stroke-miterlimit="10" stroke-linecap="round" stroke-linejoin="round"/>
<path d="M38.6 46H6C3.8 46 2 44.2 2 42V34C2 29.6 5.6 26 10 26H46C50.4 26 54 29.6 54 34V36.6" stroke="#0C2C78" stroke-width="2" stroke-miterlimit="10" stroke-linecap="round" stroke-linejoin="round"/>
</g>
<defs>
<clipPath id="clip0_104_1217">
<rect width="64" height="64" fill="white"/>
</clipPath>
</defs>
</svg>
