<svg width="21" height="25" viewBox="0 0 21 25" fill="none" xmlns="http://www.w3.org/2000/svg">
<path d="M19.3225 11.6469C18.6016 9.87277 17.7437 8.4259 16.7488 7.30625L15.7053 8.52507C16.5562 9.47488 17.2973 10.7174 17.9382 12.2649C16.232 16.3899 13.81 18.3494 10.5 18.3494C9.50649 18.3494 8.59136 18.1707 7.75464 17.8133L6.62404 19.1339C7.78615 19.7607 9.07815 20.0741 10.5 20.0741C14.4416 20.0741 17.3825 17.6763 19.3225 12.8805C19.4005 12.6877 19.4409 12.477 19.4409 12.2637C19.4409 12.0504 19.4005 11.8397 19.3225 11.6469ZM18.0188 3.966L17.1446 2.94361C17.1293 2.92579 17.1112 2.91166 17.0913 2.90201C17.0714 2.89237 17.05 2.8874 17.0285 2.8874C17.0069 2.8874 16.9856 2.89237 16.9657 2.90201C16.9457 2.91166 16.9277 2.92579 16.9124 2.94361L14.6695 5.56234C13.4328 4.82454 12.043 4.45563 10.5 4.45563C6.55842 4.45563 3.61759 6.85351 1.67755 11.6493C1.59957 11.8421 1.55913 12.0528 1.55913 12.2661C1.55913 12.4794 1.59957 12.69 1.67755 12.8829C2.45261 14.7897 3.38572 16.3181 4.47687 17.4681L2.30673 20.0023C2.27599 20.0382 2.25872 20.0869 2.25872 20.1377C2.25872 20.1886 2.27599 20.2373 2.30673 20.2732L3.18221 21.2958C3.21298 21.3318 3.25469 21.3519 3.29818 21.3519C3.34168 21.3519 3.38339 21.3318 3.41415 21.2958L18.0188 4.23717C18.0341 4.21937 18.0462 4.19823 18.0544 4.17497C18.0627 4.1517 18.0669 4.12677 18.0669 4.10158C18.0669 4.0764 18.0627 4.05146 18.0544 4.0282C18.0462 4.00493 18.0341 3.9838 18.0188 3.966ZM3.06183 12.2649C4.77013 8.13988 7.19211 6.18038 10.5 6.18038C11.6185 6.18038 12.6355 6.40459 13.5582 6.86045L12.1164 8.54447C11.4337 8.11895 10.6519 7.96102 9.88644 8.09399C9.12098 8.22697 8.41237 8.64379 7.86516 9.28298C7.31794 9.92217 6.9611 10.7499 6.84726 11.644C6.73342 12.5381 6.86862 13.4513 7.23292 14.2488L5.52215 16.2471C4.57531 15.271 3.7591 13.9484 3.06183 12.2649ZM8.12111 12.2649C8.12147 11.8425 8.20713 11.4261 8.37113 11.0497C8.53512 10.6732 8.77283 10.3472 9.06495 10.0982C9.35706 9.8492 9.69534 9.6842 10.0523 9.6166C10.4093 9.549 10.7749 9.58071 11.1194 9.70916L8.23001 13.0841C8.15759 12.8193 8.12085 12.5429 8.12111 12.2649Z" fill="#4B4B4B"/>
<path d="M10.4181 14.9478C10.3472 14.9478 10.2772 14.944 10.2079 14.9365L9.12469 16.2018C9.7762 16.4933 10.486 16.558 11.1684 16.3883C11.8507 16.2186 12.4764 15.8216 12.9697 15.2453C13.463 14.6691 13.8029 13.9383 13.9482 13.1413C14.0935 12.3442 14.0381 11.5151 13.7886 10.754L12.7054 12.0193C12.7117 12.1003 12.715 12.182 12.715 12.2649C12.7152 12.6172 12.6559 12.9662 12.5405 13.2918C12.4251 13.6174 12.2559 13.9132 12.0426 14.1624C11.8293 14.4116 11.576 14.6092 11.2973 14.744C11.0185 14.8787 10.7198 14.948 10.4181 14.9478Z" fill="#4B4B4B"/>
</svg>
