<svg width="25" height="25" viewBox="0 0 25 25" fill="none" xmlns="http://www.w3.org/2000/svg">
<path fill-rule="evenodd" clip-rule="evenodd" d="M5.50038 10.5525C5.21427 11.1739 5.21381 11.8806 5.2129 13.294L5.21004 17.7082C5.20877 19.6711 5.20813 20.6526 5.81754 21.262C6.37051 21.815 7.22983 21.8658 8.85081 21.8696L8.85417 16.6652C8.85492 15.5153 9.78766 14.5827 10.9375 14.582L14.0605 14.5802C15.2103 14.5795 16.1418 15.5111 16.1411 16.6609L16.1377 21.8653C17.7587 21.8597 18.6181 21.8079 19.1718 21.2543C19.782 20.6441 19.7826 19.6627 19.7839 17.6998L19.7867 13.2856C19.7877 11.8722 19.7881 11.1654 19.5028 10.5444C19.2175 9.92338 18.6812 9.46377 17.6087 8.54456L16.5683 7.65289C14.6296 5.99142 13.6603 5.16069 12.5051 5.16136C11.3498 5.16203 10.3794 5.99389 8.43867 7.65761L7.3971 8.55048C6.32337 9.47094 5.7865 9.93117 5.50038 10.5525ZM14.0557 21.867L14.0591 16.6622L10.9362 16.664L10.9328 21.8688L14.0557 21.867Z" fill="#474A56"/>
</svg>
