<svg width="296" height="60" viewBox="0 0 296 60" fill="none" xmlns="http://www.w3.org/2000/svg">
<rect x="0.384458" y="0.384458" width="295.231" height="59.2311" rx="7.3047" fill="white" stroke="#103885" stroke-width="0.768916"/>
<g clip-path="url(#clip0_59_148)">
<rect width="20.3551" height="24.48" transform="translate(16.9624 18.36)" fill="white"/>
<path d="M29.6844 26.52L31.3806 26.52C31.6056 26.52 31.8213 26.6275 31.9803 26.8188C32.1394 27.0101 32.2288 27.2695 32.2288 27.54L32.2288 39.78C32.2288 40.0506 32.1394 40.31 31.9803 40.5013C31.8213 40.6926 31.6056 40.8 31.3806 40.8L17.8105 40.8C17.5856 40.8 17.3699 40.6926 17.2108 40.5013C17.0518 40.31 16.9624 40.0506 16.9624 39.78L16.9624 27.54C16.9624 27.2695 17.0518 27.0101 17.2108 26.8188C17.3699 26.6275 17.5856 26.52 17.8105 26.52L19.5068 26.52L19.5068 25.5C19.5068 23.8769 20.0429 22.3203 20.9973 21.1725C21.9516 20.0248 23.2459 19.38 24.5956 19.38C25.9452 19.38 27.2396 20.0248 28.1939 21.1725C29.1482 22.3203 29.6844 23.8769 29.6844 25.5L29.6844 26.52ZM18.6587 28.56L18.6587 38.76L30.5325 38.76L30.5325 28.56L18.6587 28.56ZM23.7474 32.64L25.4437 32.64L25.4437 34.68L23.7474 34.68L23.7474 32.64ZM20.3549 32.64L22.0512 32.64L22.0512 34.68L20.3549 34.68L20.3549 32.64ZM27.14 32.64L28.8362 32.64L28.8362 34.68L27.14 34.68L27.14 32.64ZM27.9881 26.52L27.9881 25.5C27.9881 24.418 27.6307 23.3802 26.9945 22.615C26.3582 21.8499 25.4953 21.42 24.5956 21.42C23.6958 21.42 22.8329 21.8499 22.1967 22.615C21.5605 23.3802 21.2031 24.418 21.2031 25.5L21.2031 26.52L27.9881 26.52Z" fill="#103885"/>
</g>
<path d="M276.112 30.6433C275.414 28.8728 274.582 27.4288 273.618 26.3115L272.606 27.5278C273.431 28.4757 274.149 29.7157 274.771 31.26C273.117 35.3767 270.769 37.3322 267.561 37.3322C266.598 37.3322 265.711 37.1539 264.9 36.7972L263.804 38.1152C264.93 38.7407 266.183 39.0535 267.561 39.0535C271.381 39.0535 274.232 36.6605 276.112 31.8744C276.188 31.682 276.227 31.4717 276.227 31.2589C276.227 31.046 276.188 30.8357 276.112 30.6433ZM274.849 22.978L274.001 21.9576C273.987 21.9399 273.969 21.9258 273.95 21.9161C273.93 21.9065 273.91 21.9016 273.889 21.9016C273.868 21.9016 273.847 21.9065 273.828 21.9161C273.809 21.9258 273.791 21.9399 273.776 21.9576L271.602 24.5711C270.404 23.8348 269.056 23.4666 267.561 23.4666C263.74 23.4666 260.89 25.8596 259.009 30.6457C258.934 30.8381 258.895 31.0484 258.895 31.2612C258.895 31.4741 258.934 31.6843 259.009 31.8768C259.761 33.7798 260.665 35.3051 261.723 36.4527L259.619 38.9818C259.589 39.0176 259.573 39.0663 259.573 39.117C259.573 39.1677 259.589 39.2163 259.619 39.2521L260.468 40.2727C260.498 40.3085 260.538 40.3287 260.58 40.3287C260.622 40.3287 260.663 40.3085 260.693 40.2727L274.849 23.2486C274.864 23.2308 274.875 23.2097 274.883 23.1865C274.891 23.1633 274.895 23.1384 274.895 23.1133C274.895 23.0881 274.891 23.0633 274.883 23.04C274.875 23.0168 274.864 22.9957 274.849 22.978ZM260.351 31.26C262.007 27.1434 264.355 25.1879 267.561 25.1879C268.645 25.1879 269.631 25.4116 270.525 25.8666L269.128 27.5472C268.466 27.1225 267.708 26.9649 266.966 27.0976C266.224 27.2303 265.537 27.6463 265.007 28.2842C264.477 28.9221 264.131 29.7481 264.02 30.6404C263.91 31.5327 264.041 32.444 264.394 33.24L262.736 35.2342C261.818 34.26 261.027 32.9402 260.351 31.26ZM265.255 31.26C265.255 30.8385 265.338 30.423 265.497 30.0473C265.656 29.6716 265.887 29.3462 266.17 29.0978C266.453 28.8493 266.781 28.6846 267.127 28.6171C267.473 28.5497 267.827 28.5813 268.161 28.7095L265.361 32.0776C265.29 31.8133 265.255 31.5375 265.255 31.26Z" fill="#4B4B4B"/>
<path d="M267.482 33.9375C267.413 33.9375 267.345 33.9337 267.278 33.9263L266.228 35.189C266.86 35.4799 267.548 35.5445 268.209 35.3751C268.87 35.2057 269.477 34.8095 269.955 34.2345C270.433 33.6594 270.763 32.9301 270.903 32.1346C271.044 31.3392 270.991 30.5117 270.749 29.7523L269.699 31.015C269.705 31.0958 269.708 31.1773 269.708 31.26C269.708 31.6117 269.651 31.9599 269.539 32.2849C269.427 32.6098 269.263 32.9051 269.056 33.1537C268.85 33.4024 268.604 33.5996 268.334 33.7341C268.064 33.8686 267.774 33.9377 267.482 33.9375Z" fill="#4B4B4B"/>
<defs>
<clipPath id="clip0_59_148">
<rect width="20.3551" height="24.48" fill="white" transform="translate(16.9624 18.36)"/>
</clipPath>
</defs>
</svg>
