<svg width="25" height="21" viewBox="0 0 25 21" fill="none" xmlns="http://www.w3.org/2000/svg">
<path d="M23.2143 -9.13619e-09L1.78572 -7.02784e-10C1.31211 -5.16393e-10 0.857911 0.219759 0.523024 0.610933C0.188137 1.00211 6.03189e-10 1.53265 8.20907e-10 2.08586L7.38816e-09 18.7727C7.60588e-09 19.3259 0.188137 19.8565 0.523024 20.2476C0.857911 20.6388 1.31211 20.8586 1.78572 20.8586L23.2143 20.8586C23.6879 20.8586 24.1421 20.6388 24.477 20.2476C24.8119 19.8565 25 19.3259 25 18.7727L25 2.08586C25 1.53265 24.8119 1.00211 24.477 0.610933C24.1421 0.219759 23.6879 -9.32258e-09 23.2143 -9.13619e-09ZM21.25 2.08586L12.5 9.15691L3.75 2.08586L21.25 2.08586ZM1.78572 18.7727L1.78572 3.03492L11.9911 11.2845C12.1405 11.4056 12.3181 11.4705 12.5 11.4705C12.6819 11.4705 12.8595 11.4056 13.0089 11.2845L23.2143 3.03492L23.2143 18.7727L1.78572 18.7727Z" fill="white"/>
</svg>
