<svg width="21" height="25" viewBox="0 0 21 25" fill="none" xmlns="http://www.w3.org/2000/svg">
<path d="M19.3225 11.6454C18.6016 9.87153 17.7437 8.42483 16.7488 7.30532L15.7053 8.52399C16.5562 9.47369 17.2974 10.7161 17.9382 12.2634C16.232 16.3879 13.81 18.3472 10.5 18.3472C9.50649 18.3472 8.59136 18.1685 7.75464 17.8111L6.62404 19.1316C7.78615 19.7583 9.07815 20.0717 10.5 20.0717C14.4416 20.0717 17.3825 17.6741 19.3225 12.8789C19.4005 12.6861 19.4409 12.4754 19.4409 12.2622C19.4409 12.0489 19.4005 11.8383 19.3225 11.6454ZM18.0188 3.96546L17.1446 2.9432C17.1293 2.92538 17.1112 2.91125 17.0913 2.9016C17.0714 2.89196 17.0501 2.887 17.0285 2.887C17.0069 2.887 16.9856 2.89196 16.9657 2.9016C16.9458 2.91125 16.9277 2.92538 16.9124 2.9432L14.6695 5.56162C13.4329 4.8239 12.043 4.45504 10.5 4.45504C6.55842 4.45504 3.61759 6.85263 1.67755 11.6478C1.59957 11.8407 1.55913 12.0513 1.55913 12.2646C1.55913 12.4778 1.59957 12.6885 1.67755 12.8813C2.45261 14.7879 3.38572 16.3161 4.47687 17.466L2.30673 19.9998C2.27598 20.0358 2.25871 20.0845 2.25871 20.1353C2.25871 20.1861 2.27598 20.2348 2.30673 20.2707L3.18221 21.2932C3.21297 21.3291 3.25469 21.3493 3.29818 21.3493C3.34167 21.3493 3.38339 21.3291 3.41415 21.2932L18.0188 4.2366C18.0341 4.2188 18.0462 4.19767 18.0544 4.17441C18.0627 4.15115 18.0669 4.12621 18.0669 4.10103C18.0669 4.07585 18.0627 4.05092 18.0544 4.02765C18.0462 4.00439 18.0341 3.98326 18.0188 3.96546ZM3.06183 12.2634C4.77013 8.13885 7.19211 6.17958 10.5 6.17958C11.6185 6.17958 12.6355 6.40377 13.5582 6.85957L12.1165 8.54339C11.4337 8.11792 10.6519 7.96001 9.88644 8.09297C9.12098 8.22592 8.41238 8.6427 7.86516 9.28181C7.31795 9.92092 6.9611 10.7485 6.84726 11.6425C6.73342 12.5366 6.86863 13.4496 7.23292 14.2471L5.52215 16.2451C4.57531 15.2691 3.7591 13.9467 3.06183 12.2634ZM8.12112 12.2634C8.12147 11.841 8.20713 11.4247 8.37113 11.0483C8.53512 10.6718 8.77284 10.3459 9.06495 10.0969C9.35707 9.84796 9.69535 9.68298 10.0523 9.61539C10.4093 9.5478 10.7749 9.57951 11.1194 9.70794L8.23001 13.0825C8.15759 12.8177 8.12085 12.5414 8.12112 12.2634Z" fill="#4B4B4B"/>
<path d="M10.418 14.946C10.347 14.946 10.2771 14.9422 10.2078 14.9347L9.12457 16.1999C9.77609 16.4913 10.4859 16.556 11.1683 16.3863C11.8506 16.2166 12.4763 15.8197 12.9696 15.2435C13.4629 14.6673 13.8028 13.9366 13.9481 13.1397C14.0934 12.3427 14.038 11.5137 13.7885 10.7527L12.7052 12.0179C12.7116 12.0988 12.7149 12.1805 12.7149 12.2634C12.715 12.6157 12.6557 12.9646 12.5404 13.2902C12.425 13.6157 12.2558 13.9115 12.0425 14.1607C11.8292 14.4098 11.5759 14.6074 11.2972 14.7422C11.0184 14.8769 10.7197 14.9462 10.418 14.946Z" fill="#4B4B4B"/>
</svg>
