<svg width="28" height="29" viewBox="0 0 28 29" fill="none" xmlns="http://www.w3.org/2000/svg">
<g clip-path="url(#clip0_8_100)">
<path d="M17.2801 9.66665H19.5841C19.8896 9.66665 20.1826 9.79396 20.3987 10.0206C20.6147 10.2472 20.7361 10.5545 20.7361 10.875V25.375C20.7361 25.6955 20.6147 26.0028 20.3987 26.2294C20.1826 26.456 19.8896 26.5833 19.5841 26.5833H1.152C0.846474 26.5833 0.553457 26.456 0.337414 26.2294C0.121371 26.0028 0 25.6955 0 25.375V10.875C0 10.5545 0.121371 10.2472 0.337414 10.0206C0.553457 9.79396 0.846474 9.66665 1.152 9.66665H3.45601V8.45832C3.45601 6.5355 4.18424 4.69143 5.4805 3.3318C6.77675 1.97216 8.53485 1.20832 10.368 1.20832C12.2012 1.20832 13.9593 1.97216 15.2556 3.3318C16.5518 4.69143 17.2801 6.5355 17.2801 8.45832V9.66665ZM2.30401 12.0833V24.1667H18.4321V12.0833H2.30401ZM9.21603 16.9167H11.52V19.3333H9.21603V16.9167ZM4.60802 16.9167H6.91202V19.3333H4.60802V16.9167ZM13.824 16.9167H16.1281V19.3333H13.824V16.9167ZM14.9761 9.66665V8.45832C14.9761 7.17644 14.4906 5.94706 13.6264 5.04064C12.7622 4.13421 11.5902 3.62499 10.368 3.62499C9.14591 3.62499 7.97385 4.13421 7.10968 5.04064C6.24551 5.94706 5.76002 7.17644 5.76002 8.45832V9.66665H14.9761Z" fill="#103885"/>
</g>
<defs>
<clipPath id="clip0_8_100">
<rect width="27.2" height="28.53" fill="white" transform="scale(1.01647)"/>
</clipPath>
</defs>
</svg>
