<svg width="24" height="24" viewBox="0 0 24 24" fill="none" xmlns="http://www.w3.org/2000/svg">
<path d="M5.0718 8C4.36965 9.21615 4 10.5957 4 12C4 13.4043 4.36965 14.7838 5.0718 16C5.77394 17.2162 6.78385 18.2261 8 18.9282C9.21615 19.6303 10.5957 20 12 20C13.4043 20 14.7838 19.6303 16 18.9282C17.2162 18.2261 18.2261 17.2162 18.9282 16C19.6303 14.7838 20 13.4043 20 12C20 10.5957 19.6304 9.21615 18.9282 8" stroke="white" stroke-width="2"/>
<path d="M12 2L12.6247 1.21913L12 0.719375L11.3753 1.21913L12 2ZM11 11C11 11.5523 11.4477 12 12 12C12.5523 12 13 11.5523 13 11H11ZM17.6247 5.21913L12.6247 1.21913L11.3753 2.78087L16.3753 6.78087L17.6247 5.21913ZM11.3753 1.21913L6.37531 5.21913L7.62469 6.78087L12.6247 2.78087L11.3753 1.21913ZM11 2V11H13V2L11 2Z" fill="white"/>
</svg>
