<svg width="21" height="25" viewBox="0 0 21 25" fill="none" xmlns="http://www.w3.org/2000/svg">
<g clip-path="url(#clip0_8_38)">
<path d="M13.125 8.17658L14.875 8.17658C15.1071 8.17658 15.3296 8.28427 15.4937 8.47594C15.6578 8.66762 15.75 8.92758 15.75 9.19865L15.75 21.4635C15.75 21.7346 15.6578 21.9945 15.4937 22.1862C15.3296 22.3779 15.1071 22.4856 14.875 22.4856L0.875001 22.4856C0.642936 22.4856 0.420376 22.3779 0.256282 22.1862C0.0921873 21.9945 -1.49322e-09 21.7346 -1.47367e-09 21.4635L-5.89469e-10 9.19865C-5.69927e-10 8.92758 0.0921873 8.66762 0.256282 8.47594C0.420376 8.28427 0.642936 8.17658 0.875001 8.17658L2.625 8.17658L2.625 7.15451C2.625 5.52809 3.17813 3.96829 4.16269 2.81824C5.14726 1.66818 6.48262 1.02209 7.87501 1.02209C9.2674 1.02209 10.6028 1.66818 11.5873 2.81824C12.5719 3.96829 13.125 5.52809 13.125 7.15451L13.125 8.17658ZM1.75 10.2207L1.75 20.4414L14 20.4414L14 10.2207L1.75 10.2207ZM7.00001 14.309L8.75001 14.309L8.75001 16.3531L7.00001 16.3531L7.00001 14.309ZM3.5 14.309L5.25001 14.309L5.25001 16.3531L3.5 16.3531L3.5 14.309ZM10.5 14.309L12.25 14.309L12.25 16.3531L10.5 16.3531L10.5 14.309ZM11.375 8.17658L11.375 7.15451C11.375 6.07023 11.0063 5.03036 10.3499 4.26366C9.69351 3.49696 8.80327 3.06623 7.87501 3.06623C6.94675 3.06623 6.05651 3.49696 5.40013 4.26366C4.74375 5.03036 4.37501 6.07023 4.37501 7.15451L4.37501 8.17658L11.375 8.17658Z" fill="#103885"/>
</g>
<defs>
<clipPath id="clip0_8_38">
<rect width="20.9575" height="24.48" fill="white" transform="scale(1.00203)"/>
</clipPath>
</defs>
</svg>
