<svg width="82" height="78" viewBox="0 0 82 78" fill="none" xmlns="http://www.w3.org/2000/svg">
<path fill-rule="evenodd" clip-rule="evenodd" d="M41 0C18.3552 0 0 17.4598 0 39C0 60.5378 18.3552 78 41 78C63.6423 78 82 60.5402 82 39C82 17.4598 63.6423 0 41 0ZM41 73.125C21.1868 73.125 5.125 57.8467 5.125 39C5.125 20.1532 21.1868 4.875 41 4.875C60.8133 4.875 76.875 20.1532 76.875 39C76.875 57.8467 60.8133 73.125 41 73.125Z" fill="#103885"/>
<path fill-rule="evenodd" clip-rule="evenodd" d="M58.2431 51.8481L44.7439 39.0049L58.1662 26.3421C59.1784 25.389 59.1784 23.8461 58.1662 22.8954C57.1566 21.9448 55.5166 21.9448 54.507 22.8954L41.1025 35.5412L27.4982 22.5981C26.4886 21.6328 24.8486 21.6328 23.839 22.5981C22.8294 23.5609 22.8294 25.1258 23.839 26.0886L37.4228 39.0122L23.7621 51.8993C22.7525 52.8523 22.7525 54.3953 23.7621 55.3459C24.7717 56.2989 26.4117 56.2989 27.4239 55.3459L41.0667 42.4759L54.5864 55.3361C55.596 56.3014 57.236 56.3014 58.2457 55.3361C59.2527 54.3758 59.2527 52.8133 58.2431 51.8481Z" fill="#11378A"/>
</svg>
