<svg width="18" height="23" viewBox="0 0 18 23" fill="none" xmlns="http://www.w3.org/2000/svg">
<path d="M17.9512 23H0V20.8095C0 19.3571 0.591026 17.9643 1.64306 16.9373C2.69509 15.9103 4.12196 15.3333 5.60976 15.3333H12.3415C13.8293 15.3333 15.2561 15.9103 16.3082 16.9373C17.3602 17.9643 17.9512 19.3571 17.9512 20.8095V23ZM8.97561 13.1429C8.09159 13.1429 7.21622 12.9729 6.3995 12.6426C5.58277 12.3124 4.84067 11.8283 4.21557 11.2181C3.59048 10.6079 3.09462 9.88349 2.75632 9.08621C2.41802 8.28892 2.2439 7.4344 2.2439 6.57143C2.2439 5.70846 2.41802 4.85393 2.75632 4.05665C3.09462 3.25937 3.59048 2.53494 4.21557 1.92473C4.84067 1.31451 5.58277 0.830465 6.3995 0.50022C7.21622 0.169975 8.09159 -1.28593e-08 8.97561 0C10.761 2.59705e-08 12.4732 0.692345 13.7356 1.92473C14.9981 3.15711 15.7073 4.82858 15.7073 6.57143C15.7073 8.31428 14.9981 9.98575 13.7356 11.2181C12.4732 12.4505 10.761 13.1429 8.97561 13.1429Z" fill="#888B93"/>
</svg>
