<svg width="68" height="78" viewBox="0 0 68 78" fill="none" xmlns="http://www.w3.org/2000/svg">
<path d="M56.2316 26H63.7292C64.7234 26 65.677 26.3913 66.38 27.0879C67.083 27.7845 67.478 28.7292 67.478 29.7143V74.2857C67.478 75.2708 67.083 76.2156 66.38 76.9121C65.677 77.6087 64.7234 78 63.7292 78H3.74878C2.75454 78 1.80102 77.6087 1.09799 76.9121C0.394959 76.2156 0 75.2708 0 74.2857V29.7143C0 28.7292 0.394959 27.7845 1.09799 27.0879C1.80102 26.3913 2.75454 26 3.74878 26H11.2463V22.2857C11.2463 16.3752 13.6161 10.7067 17.8343 6.52733C22.0525 2.34795 27.7736 0 33.739 0C39.7044 0 45.4255 2.34795 49.6437 6.52733C53.8619 10.7067 56.2316 16.3752 56.2316 22.2857V26ZM7.49755 33.4286V70.5714H59.9804V33.4286H7.49755ZM29.9902 48.2857H37.4878V55.7143H29.9902V48.2857ZM14.9951 48.2857H22.4927V55.7143H14.9951V48.2857ZM44.9853 48.2857H52.4829V55.7143H44.9853V48.2857ZM48.7341 26V22.2857C48.7341 18.3454 47.1543 14.5664 44.3421 11.7801C41.53 8.99387 37.7159 7.42857 33.739 7.42857C29.762 7.42857 25.948 8.99387 23.1358 11.7801C20.3237 14.5664 18.7439 18.3454 18.7439 22.2857V26H48.7341Z" fill="#103885"/>
</svg>
